<svg width="393" height="280" viewBox="0 0 393 280" fill="none" xmlns="http://www.w3.org/2000/svg">
<rect width="393" height="280" fill="white"/>
<rect x="110.924" y="103.482" width="171.152" height="72.9593" rx="10" fill="#74386E"/>
<rect x="20" y="134.565" width="80.2273" height="41.8181" rx="10" fill="#741D32"/>
<rect x="20" y="186.963" width="170.114" height="72.9593" rx="10" fill="#B03838"/>
<rect x="201.849" y="186.963" width="80.2273" height="72.9593" rx="10" fill="#C15879"/>
<rect x="292.773" y="145.223" width="80.2273" height="114.777" rx="10" fill="#EE987A"/>
<rect x="292.773" y="20" width="80.2273" height="114.777" rx="10" fill="#42629D"/>
<path d="M201.849 30C201.849 24.4772 206.326 20 211.849 20H272.076C277.599 20 282.076 24.4772 282.076 30V82.9593C282.076 88.4822 277.599 92.9593 272.076 92.9593H211.849C206.326 92.9593 201.849 88.4822 201.849 82.9593V30Z" fill="#273E79"/>
<rect x="110.924" y="20" width="80.2273" height="72.9593" rx="10" fill="#2F2A56"/>
<rect x="20" y="20" width="80.2273" height="104.1" rx="10" fill="#360F2B"/>
</svg>
