<svg width="353" height="240" viewBox="0 0 353 240" fill="none" xmlns="http://www.w3.org/2000/svg">
<rect x="90.9242" y="83.4817" width="171.152" height="72.9593" rx="10" fill="#74386E"/>
<rect y="114.565" width="80.2273" height="41.8181" rx="10" fill="#741D32"/>
<rect y="166.963" width="170.114" height="72.9593" rx="10" fill="#B03838"/>
<rect x="181.849" y="166.963" width="80.2273" height="72.9593" rx="10" fill="#C15879"/>
<rect x="272.773" y="125.223" width="80.2273" height="114.777" rx="10" fill="#EE987A"/>
<rect x="272.773" width="80.2273" height="114.777" rx="10" fill="#42629D"/>
<path d="M181.849 10C181.849 4.47717 186.326 0 191.849 0H252.076C257.599 0 262.076 4.47715 262.076 10V62.9593C262.076 68.4822 257.599 72.9593 252.076 72.9593H191.849C186.326 72.9593 181.849 68.4822 181.849 62.9593V10Z" fill="#273E79"/>
<rect x="90.9242" width="80.2273" height="72.9593" rx="10" fill="#2F2A56"/>
<rect width="80.2273" height="104.1" rx="10" fill="#360F2B"/>
</svg>
