<svg width="216" height="55" viewBox="0 0 216 55" fill="none" xmlns="http://www.w3.org/2000/svg">
<path d="M0.957386 1.13636H14.6108L29.0312 36.3182H29.6449L44.0653 1.13636H57.7188V53.5H46.9801V19.4176H46.5455L32.9943 53.2443H25.6818L12.1307 19.2898H11.696V53.5H0.957386V1.13636ZM114.96 27.3182C114.96 33.0284 113.877 37.8864 111.712 41.892C109.565 45.8977 106.633 48.9574 102.917 51.071C99.218 53.1676 95.059 54.2159 90.4396 54.2159C85.7862 54.2159 81.6101 53.1591 77.9112 51.0455C74.2124 48.9318 71.2891 45.8722 69.1413 41.8665C66.9936 37.8608 65.9197 33.0114 65.9197 27.3182C65.9197 21.608 66.9936 16.75 69.1413 12.7443C71.2891 8.73864 74.2124 5.6875 77.9112 3.59091C81.6101 1.47727 85.7862 0.420453 90.4396 0.420453C95.059 0.420453 99.218 1.47727 102.917 3.59091C106.633 5.6875 109.565 8.73864 111.712 12.7443C113.877 16.75 114.96 21.608 114.96 27.3182ZM103.735 27.3182C103.735 23.6193 103.181 20.5 102.073 17.9602C100.982 15.4205 99.4396 13.4943 97.4453 12.1818C95.451 10.8693 93.1158 10.2131 90.4396 10.2131C87.7635 10.2131 85.4283 10.8693 83.434 12.1818C81.4396 13.4943 79.8885 15.4205 78.7805 17.9602C77.6896 20.5 77.1442 23.6193 77.1442 27.3182C77.1442 31.017 77.6896 34.1364 78.7805 36.6761C79.8885 39.2159 81.4396 41.142 83.434 42.4545C85.4283 43.767 87.7635 44.4233 90.4396 44.4233C93.1158 44.4233 95.451 43.767 97.4453 42.4545C99.4396 41.142 100.982 39.2159 102.073 36.6761C103.181 34.1364 103.735 31.017 103.735 27.3182ZM141.723 53.5H123.161V1.13636H141.876C147.143 1.13636 151.678 2.18466 155.479 4.28125C159.28 6.36079 162.203 9.35227 164.249 13.2557C166.311 17.1591 167.342 21.8295 167.342 27.267C167.342 32.7216 166.311 37.4091 164.249 41.3295C162.203 45.25 159.263 48.2585 155.428 50.3551C151.609 52.4517 147.041 53.5 141.723 53.5ZM134.232 44.0142H141.263C144.536 44.0142 147.288 43.4347 149.521 42.2756C151.771 41.0994 153.459 39.2841 154.584 36.8295C155.726 34.358 156.297 31.1705 156.297 27.267C156.297 23.3977 155.726 20.2358 154.584 17.7812C153.459 15.3267 151.78 13.5199 149.547 12.3608C147.314 11.2017 144.561 10.6222 141.288 10.6222H134.232V44.0142ZM175.543 53.5V1.13636H196.509C200.362 1.13636 203.575 1.70739 206.148 2.84943C208.722 3.99148 210.657 5.5767 211.952 7.60511C213.248 9.61648 213.896 11.9347 213.896 14.5597C213.896 16.6051 213.487 18.4034 212.668 19.9545C211.85 21.4886 210.725 22.75 209.293 23.7386C207.879 24.7102 206.259 25.4006 204.435 25.8097V26.321C206.43 26.4062 208.296 26.9687 210.035 28.0085C211.79 29.0483 213.214 30.5057 214.305 32.3807C215.396 34.2386 215.941 36.4545 215.941 39.0284C215.941 41.8068 215.251 44.2869 213.87 46.4688C212.506 48.6335 210.487 50.3466 207.81 51.608C205.134 52.8693 201.836 53.5 197.915 53.5H175.543ZM186.614 44.4489H195.64C198.725 44.4489 200.975 43.8608 202.39 42.6847C203.805 41.4915 204.512 39.9062 204.512 37.929C204.512 36.4801 204.163 35.2017 203.464 34.0938C202.765 32.9858 201.768 32.1165 200.472 31.4858C199.194 30.8551 197.668 30.5398 195.896 30.5398H186.614V44.4489ZM186.614 23.0483H194.822C196.339 23.0483 197.685 22.7841 198.862 22.2557C200.055 21.7102 200.992 20.9432 201.674 19.9545C202.373 18.9659 202.722 17.7812 202.722 16.4006C202.722 14.5085 202.049 12.983 200.702 11.8239C199.373 10.6648 197.481 10.0852 195.026 10.0852H186.614V23.0483Z" fill="url(#paint0_linear_265_1229)"/>
<defs>
<linearGradient id="paint0_linear_265_1229" x1="-4" y1="27.5" x2="219" y2="27.5" gradientUnits="userSpaceOnUse">
<stop offset="0.2" stop-color="#2F2A56"/>
<stop offset="0.4" stop-color="#74386E"/>
<stop offset="0.6" stop-color="#C15879"/>
<stop offset="0.8" stop-color="#EE987A"/>
</linearGradient>
</defs>
</svg>
